# xmcd
#
# Track frame offsets:
#	150
#	16858
#	33205
#	49422
#	65248
#	82728
#	98285
#	114893
#	129683
#	151712
#	168247
#	182249
#	198407
#	215410
#	231078
#
# Disc length: 3299 seconds
#
# Revision: 1
# Processed by: cddbd v1.5.2PL0 Copyright (c) Steve Scherf et al.
# Submitted via: audiograbber 1.83.01
#
DISCID=b70ce10f
DTITLE=Steini - Und wir fliegen
DYEAR=2011
DGENRE=Duits
TTITLE0=Steini - Und wir fliegen
TTITLE1=Steini - Glaube mir
TTITLE2=Steini - Schneewitchen
TTITLE3=Steini - Wir fliegen zu den sternen
TTITLE4=Steini - Was ist bloss mit uns passiert 
TTITLE5=Steini - Wie die ache aus dem vulkan
TTITLE6=Steini - Gib uns nicht auf
TTITLE7=Steini - Ich traum dich in stereo
TTITLE8=Steini - Du willst leben
TTITLE9=Steini - Bilder von dir
TTITLE10=Steini - Frauen sind suss
TTITLE11=Steini - Ich bin dein pilot
TTITLE12=Steini - Ich mal dir den wind
TTITLE13=Steini - Bis zum himmel hoch
TTITLE14=Steini - 3604
EXTD=
EXTT0=
EXTT1=
EXTT2=
EXTT3=
EXTT4=
EXTT5=
EXTT6=
EXTT7=
EXTT8=
EXTT9=
EXTT10=
EXTT11=
EXTT12=
EXTT13=
EXTT14=
PLAYORDER=
